<svg id="Layer_5" enable-background="new 0 0 64 64" height="512" viewBox="0 0 64 64" width="512" xmlns="http://www.w3.org/2000/svg"><path d="m32 6v16c-2.03 0-3.88.76-5.29 2h-7.71v4.59c0 .78-.63 1.41-1.41 1.41-.38 0-.74-.15-1-.41l-5.59-5.59h-5c-2.21 0-4-1.79-4-4v-14c0-2.21 1.79-4 4-4h22c2.21 0 4 1.79 4 4z" fill="#e6e9ed"/><path d="m49 55v3c0 2.21-1.79 4-4 4h-6c2.21 0 4-1.79 4-4v-10c0-2.21-1.79-4-4-4h-14c-2.21 0-4 1.79-4 4v10c0 2.21 1.79 4 4 4h-6c-2.21 0-4-1.79-4-4v-3c0-9.39 7.61-17 17-17 4.7 0 8.94 1.9 12.02 4.98s4.98 7.32 4.98 12.02z" fill="#48cfad"/><path d="m21 58h22c0 2.21-1.79 4-4 4h-2-9-3c-2.21 0-4-1.79-4-4z" fill="#aab2bd"/><path d="m43 48v10h-22v-10c0-2.21 1.79-4 4-4h14c2.21 0 4 1.79 4 4z" fill="#ccd1d9"/><circle cx="32" cy="50" fill="#fcd770" r="2"/><path d="m32 22c4.42 0 8 3.58 8 8s-3.58 8-8 8-8-3.58-8-8c0-2.39 1.05-4.54 2.71-6 1.41-1.24 3.26-2 5.29-2z" fill="#f5e0cd"/><path d="m17 6c2.21 0 4 1.79 4 4 0 1.48-.81 2.75-2 3.45v6.55h-4v-6.55c-1.19-.7-2-1.97-2-3.45 0-2.21 1.79-4 4-4z" fill="#fcd770"/><path d="m62 11c0 3.92-2.51 7.24-6 8.48v2.52h-2v4h2v4h-2v4h2v4c0 1.1-.9 2-2 2h-2c-1.1 0-2-.9-2-2v-18.52c-3.58-1.27-6.12-4.73-6-8.77.15-4.68 4.06-8.57 8.74-8.71 5.09-.14 9.26 3.94 9.26 9zm-5-1c0-2.21-1.79-4-4-4s-4 1.79-4 4 1.79 4 4 4 4-1.79 4-4z" fill="#fcd770"/><path d="m36.719 37.649c2.564-1.588 4.281-4.418 4.281-7.649 0-4.624-3.507-8.442-8-8.941v-15.059c0-2.757-2.243-5-5-5h-22c-2.757 0-5 2.243-5 5v14c0 2.757 2.243 5 5 5h4.586l5.292 5.292c.449.45 1.071.708 1.708.708 1.331 0 2.414-1.083 2.414-2.414v-3.586h4.522c-.96 1.431-1.522 3.151-1.522 5 0 3.231 1.717 6.061 4.281 7.649-7.64 2.081-13.281 9.061-13.281 17.351v3c0 2.757 2.243 5 5 5h6 3 9 2 6c2.757 0 5-2.243 5-5v-3c0-8.29-5.641-15.27-13.281-17.351zm-18.719-14.649v5.586c0 .338-.469.531-.707.293l-5.879-5.879h-5.414c-1.654 0-3-1.346-3-3v-14c0-1.654 1.346-3 3-3h22c1.654 0 3 1.346 3 3v15.059c-1.747.194-3.344.89-4.644 1.941zm7 7c0-3.86 3.141-7 7-7s7 3.14 7 7c0 3.859-3.141 7-7 7s-7-3.141-7-7zm12 31h-9-3c-1.302 0-2.402-.839-2.816-2h19.631c-.414 1.161-1.514 2-2.816 2zm5-4h-20v-9c0-1.654 1.346-3 3-3h14c1.654 0 3 1.346 3 3zm6 1c0 1.654-1.346 3-3 3h-2.026c.635-.838 1.026-1.87 1.026-3v-10c0-2.757-2.243-5-5-5h-14c-2.757 0-5 2.243-5 5v10c0 1.13.391 2.162 1.026 3h-2.026c-1.654 0-3-1.346-3-3v-3c0-8.822 7.178-16 16-16s16 7.178 16 16z"/><path d="m53 5c-2.757 0-5 2.243-5 5s2.243 5 5 5 5-2.243 5-5-2.243-5-5-5zm0 8c-1.654 0-3-1.346-3-3s1.346-3 3-3 3 1.346 3 3-1.346 3-3 3z"/><path d="m59.969 3.828c-1.954-1.898-4.515-2.901-7.261-2.824-5.188.147-9.541 4.489-9.703 9.677h.001c-.129 4.125 2.255 7.847 5.994 9.476v17.843c0 1.654 1.346 3 3 3h2c1.654 0 3-1.346 3-3v-5h-2v-2h2v-6h-2v-2h2v-2.843c3.616-1.58 6-5.174 6-9.157 0-2.725-1.076-5.272-3.031-7.172zm-4.303 14.706-.666.237v2.229h-2v6h2v2h-2v6h2v3c0 .552-.448 1-1 1h-2c-.552 0-1-.448-1-1v-19.229l-.666-.236c-3.297-1.167-5.438-4.298-5.33-7.79h.001c.129-4.15 3.609-7.623 7.76-7.741.079-.003.158-.004.237-.004 2.095 0 4.066.798 5.573 2.263 1.564 1.519 2.425 3.557 2.425 5.737 0 3.377-2.144 6.405-5.334 7.534z"/><path d="m17 5c-2.757 0-5 2.243-5 5 0 1.563.754 3.041 2 3.979v7.021h6v-7.021c1.246-.939 2-2.416 2-3.979 0-2.757-2.243-5-5-5zm1.497 7.581-.497.289v6.13h-2v-6.13l-.497-.289c-.941-.548-1.503-1.513-1.503-2.581 0-1.654 1.346-3 3-3s3 1.346 3 3c0 1.068-.562 2.033-1.503 2.581z"/><path d="m5 15h2v2h-2z"/><path d="m5 7v6h2v-6h2v-2h-2c-1.103 0-2 .897-2 2z"/><path d="m27 9h2v2h-2z"/><path d="m27 17h2v2h-2z"/><path d="m27 13h2v2h-2z"/><path d="m32 47c-1.654 0-3 1.346-3 3s1.346 3 3 3 3-1.346 3-3-1.346-3-3-3zm0 4c-.552 0-1-.448-1-1s.448-1 1-1 1 .448 1 1-.448 1-1 1z"/></svg>